<svg xmlns="http://www.w3.org/2000/svg" xmlns:xlink="http://www.w3.org/1999/xlink" width="85" height="40" viewBox="0 0 85 40">
  <defs>
    <clipPath id="clip-path">
      <rect id="Rectangle_3996" data-name="Rectangle 3996" width="85" height="40" transform="translate(362 12)" fill="#fbb"/>
    </clipPath>
  </defs>
  <g id="eiloy_ic" data-name="eiloy ic" transform="translate(-362 -12)" clip-path="url(#clip-path)">
    <g id="Eiloy_logo_main" data-name="Eiloy logo main" transform="translate(362.008 13.172)">
      <path id="Path_1" data-name="Path 1" d="M74.49,50.8a6.393,6.393,0,0,1,6.68,6.67A6.486,6.486,0,0,1,74.377,64.2,6.316,6.316,0,0,1,67.8,57.511,6.365,6.365,0,0,1,74.49,50.8Zm-.012,2.824a3.094,3.094,0,0,0-3.094,2.166A5.176,5.176,0,0,0,71.3,58.91a3,3,0,0,0,2.443,2.37,3.131,3.131,0,0,0,3.356-1.3,4.486,4.486,0,0,0,.45-4.147,3.135,3.135,0,0,0-3.068-2.2Z" transform="translate(-10.964 -32.51)" fill="#282b35"/>
      <path id="Path_2" data-name="Path 2" d="M43.017,55.82v-7.81c0-.307.065-.4.389-.4q4.375.02,8.75,0c.288,0,.4.05.385.367-.028.643-.026,1.289,0,1.932.012.319-.1.371-.391.369-1.815-.012-3.631,0-5.446-.012-.3,0-.413.05-.4.385.024,1.142.02,2.281,0,3.429,0,.28.073.359.355.355,1.587-.012,3.173,0,4.758-.012.3,0,.426.046.4.385-.03.629-.022,1.261,0,1.892.01.274-.087.331-.341.329-1.6-.012-3.2,0-4.8-.012-.29,0-.387.054-.381.367q.03,1.815,0,3.631c0,.341.115.383.4.381,1.8-.012,3.6,0,5.4-.012.323,0,.448.058.432.4-.03.658-.014,1.315,0,1.973,0,.2-.044.28-.266.278H43.277c-.323,0-.254-.186-.254-.361Q43.015,59.746,43.017,55.82Z" transform="translate(-10.964 -32.51)" fill="#282b35"/>
      <path id="Path_3" data-name="Path 3" d="M89.194,60.014q.585-1.547,1.166-3.092c.7-1.862,1.412-3.723,2.092-5.589a.379.379,0,0,1,.432-.3c.914.014,1.827.018,2.741,0,.345,0,.4.056.26.385q-3,7.084-5.974,14.169l-1.8,4.278c-.061.143-.079.3-.3.3H84.514l.988-2.273c.565-1.3,1.128-2.6,1.7-3.891a.692.692,0,0,0,0-.605Q84.722,57.4,82.251,51.407c-.115-.28-.137-.385.232-.375.98.024,1.963.022,2.943,0a.426.426,0,0,1,.48.349q1.527,4.173,3.072,8.338c.036.1.079.192.119.288Z" transform="translate(-10.964 -32.51)" fill="#282b35"/>
      <path id="Path_4" data-name="Path 4" d="M21.523,32.51l2.311,1.9a.3.3,0,0,1,.133.272V64.362c0,.387-.087.506-.48.48-.563-.036-1.13-.016-1.694,0-.2,0-.307-.052-.28-.268a1.682,1.682,0,0,0,0-.2V32.51Z" transform="translate(-10.964 -32.51)" fill="#097aff"/>
      <path id="Path_5" data-name="Path 5" d="M26.87,38.755l2.346,1.961c.123.1.1.242.1.373V64.512c0,.234-.046.335-.309.327-.617-.018-1.236-.016-1.854,0-.234,0-.294-.075-.29-.3.01-.871,0-1.745,0-2.622V38.755Z" transform="translate(-10.964 -32.51)" fill="#097aff"/>
      <path id="Path_6" data-name="Path 6" d="M18.528,38.87c.083.123.04.26.04.387V64.381c0,.369-.089.482-.46.462-.563-.034-1.13-.018-1.694,0-.23,0-.3-.069-.3-.3.014-.71,0-1.422,0-2.134V41.274a.9.9,0,0,1,.4-.807c.573-.442,1.115-.922,1.674-1.384C18.3,39,18.373,38.88,18.528,38.87Z" transform="translate(-10.964 -32.51)" fill="#097aff"/>
      <path id="Path_7" data-name="Path 7" d="M65.337,55.387v8.248c0,.3-.052.413-.385.4q-1.249-.042-2.5,0c-.333.012-.418-.073-.416-.4q.018-8.026,0-16.055c0-.916,0-.916.9-.916.672,0,1.343.016,2.017,0,.3,0,.377.067.375.371C65.333,49.806,65.337,52.6,65.337,55.387Z" transform="translate(-10.964 -32.51)" fill="#282b35"/>
      <path id="Path_8" data-name="Path 8" d="M32.032,44.943c.807.666,1.515,1.273,2.245,1.866a.5.5,0,0,1,.2.442q0,8.615,0,17.227c0,.276-.069.373-.355.363-.577-.022-1.158-.028-1.733,0-.323.016-.369-.1-.369-.387q.016-6.42,0-12.84v-6.67Z" transform="translate(-10.964 -32.51)" fill="#097aff"/>
      <path id="Path_9" data-name="Path 9" d="M13.409,45V64.4c0,.343-.067.468-.436.446-.577-.036-1.156-.016-1.733,0-.2,0-.3-.048-.28-.268.012-.133,0-.268,0-.4V47.389a.71.71,0,0,1,.264-.625c.67-.539,1.323-1.1,1.983-1.642A1.573,1.573,0,0,1,13.409,45Z" transform="translate(-10.964 -32.51)" fill="#097aff"/>
      <path id="Path_10" data-name="Path 10" d="M58.8,57.515v6.16c0,.27-.05.367-.345.361-.885-.022-1.775-.016-2.66,0-.23,0-.29-.065-.29-.29v-12.4c0-.266.1-.3.325-.3.873,0,1.749.016,2.622,0,.286,0,.353.079.351.357C58.8,53.434,58.8,55.467,58.8,57.515Z" transform="translate(-10.964 -32.51)" fill="#282b35"/>
      <path id="Path_11" data-name="Path 11" d="M57.168,45.649a1.9,1.9,0,1,1-1.979,1.92A1.893,1.893,0,0,1,57.168,45.649Z" transform="translate(-10.964 -32.51)" fill="#282b35"/>
    </g>
  </g>
</svg>
